#N canvas 639 280 596 251 10;
#X obj 208 211 print;
#X obj 273 214 print;
#X obj 401 56 r foo;
#X msg 198 133 1 2 \, 10 20;
#X obj 495 77 print viaBar;
#X obj 401 78 print viaFoo;
#X msg 239 166 \$1 \$1 \; \$1 \$2 \; bar \$2 \$1;
#X msg 322 123 list foo 5 6;
#X obj 495 55 receive bar;
#X floatatom 59 64 5 0 0 0 - - -, f 5;
#X obj 63 91 print;
#X connect 2 0 5 0;
#X connect 3 0 6 0;
#X connect 6 0 0 0;
#X connect 6 0 1 0;
#X connect 7 0 6 0;
#X connect 8 0 4 0;
#X connect 9 0 10 0;
