#N canvas 1760 316 683 540 12;
#X obj 270 322 dac~ 1;
#X obj 250 296 *~;
#X floatatom 156 101 0 0 0 0 - - -;
#X obj 276 266 line~;
#N canvas 0 50 450 250 (subpatch) 0;
#X array array99 100 float 4;
#X coords 0 -1 99 1 200 100 1 0 0;
#X restore 363 242 graph;
#X obj 89 322 tabwrite~ array99;
#X obj 156 130 osc~ 1000;
#X obj 120 267 r metroToggle;
#X obj 120 296 metro 500;
#X msg 454 100 \; pd dsp 1 \; metroToggle 1;
#X msg 454 161 \; pd dsp 0 \; metroToggle 0;
#X msg 276 208 0 100;
#X msg 276 237 0.1 1000;
#X connect 1 0 0 0;
#X connect 2 0 6 0;
#X connect 3 0 1 1;
#X connect 6 0 1 0;
#X connect 6 0 5 0;
#X connect 7 0 8 0;
#X connect 7 0 8 0;
#X connect 8 0 5 0;
#X connect 11 0 3 0;
#X connect 12 0 3 0;
